<svg aria-hidden="true" style="position:absolute;width:0;height:0;overflow:hidden" xmlns="http://www.w3.org/2000/svg"><defs><symbol id="iconcheck" viewBox="0 0 34 32"><path fill="#2196f3" style="fill:var(--color1, #2196f3)" d="M4.267 0h25.6a4.267 4.267 0 0 1 4.267 4.267v23.467a4.267 4.267 0 0 1-4.267 4.267h-25.6A4.267 4.267 0 0 1 0 27.734V4.267A4.267 4.267 0 0 1 4.267 0z"/><path fill="#fff" style="fill:var(--color2, #fff);stroke:var(--color2, #fff)" stroke="#fff" stroke-width=".427" d="m8.442 16.538-.147-.141-.147.139-2.057 1.95.162.156 7.605 7.253.147-.141 16.171-15.426-.162-.154-2.029-1.935-.147.141-13.98 13.325-5.417-5.167z"/></symbol><symbol id="border" viewBox="0 0 34 32"><path d="M30.34 3.556v24.887H3.793V3.556H30.34zm0-3.556H3.793C1.707 0 0 1.6 0 3.556v24.887c0 1.956 1.707 3.556 3.793 3.556H30.34c2.086 0 3.793-1.6 3.793-3.556V3.556C34.133 1.6 32.426 0 30.34 0z"/></symbol></defs></svg>